<?xml version="1.0" encoding="UTF-8"?>
<svg xmlns="http://www.w3.org/2000/svg" xmlns:xlink="http://www.w3.org/1999/xlink" viewBox="0 0 1065.43 1568.33">
  <defs>
    <style>
      .cls-1 {
        fill: #0095d4;
      }

      .cls-1, .cls-2, .cls-3, .cls-4, .cls-5, .cls-6, .cls-7, .cls-8, .cls-9, .cls-10, .cls-11, .cls-12, .cls-13, .cls-14, .cls-15, .cls-16, .cls-17, .cls-18, .cls-19, .cls-20, .cls-21, .cls-22, .cls-23, .cls-24, .cls-25, .cls-26, .cls-27, .cls-28, .cls-29, .cls-30, .cls-31, .cls-32, .cls-33, .cls-34, .cls-35, .cls-36, .cls-37, .cls-38, .cls-39, .cls-40, .cls-41, .cls-42, .cls-43, .cls-44, .cls-45, .cls-46, .cls-47, .cls-48, .cls-49, .cls-50, .cls-51, .cls-52, .cls-53, .cls-54, .cls-55, .cls-56, .cls-57, .cls-58, .cls-59, .cls-60, .cls-61, .cls-62, .cls-63, .cls-64 {
        stroke-width: 0px;
      }

      .cls-65, .cls-66 {
        stroke: #242657;
        stroke-miterlimit: 10;
        stroke-width: 2.81px;
      }

      .cls-65, .cls-53 {
        fill: #fff;
      }

      .cls-2 {
        fill: #17428c;
      }

      .cls-3 {
        fill: #63b9e9;
      }

      .cls-4 {
        fill: #b3b3b3;
        mix-blend-mode: multiply;
      }

      .cls-5 {
        fill: url(#Nouvelle_nuance_de_dégradé_10-10);
      }

      .cls-6 {
        fill: url(#Nouvelle_nuance_de_dégradé_10-12);
      }

      .cls-7 {
        fill: url(#Nouvelle_nuance_de_dégradé_10-14);
      }

      .cls-8 {
        fill: url(#Nouvelle_nuance_de_dégradé_10-13);
      }

      .cls-9 {
        fill: url(#Nouvelle_nuance_de_dégradé_10-11);
      }

      .cls-66 {
        fill: none;
      }

      .cls-10 {
        fill: url(#Dégradé_sans_nom_84-4);
      }

      .cls-11 {
        fill: url(#Dégradé_sans_nom_84-6);
      }

      .cls-12 {
        fill: url(#Dégradé_sans_nom_84-3);
      }

      .cls-13 {
        fill: url(#Dégradé_sans_nom_84-2);
      }

      .cls-14 {
        fill: url(#Dégradé_sans_nom_84-5);
      }

      .cls-15 {
        fill: url(#Dégradé_sans_nom_86-2);
      }

      .cls-16 {
        fill: url(#Dégradé_sans_nom_86-3);
      }

      .cls-17 {
        fill: url(#Dégradé_sans_nom_18-3);
      }

      .cls-18 {
        fill: url(#Dégradé_sans_nom_18-4);
      }

      .cls-19 {
        fill: url(#Dégradé_sans_nom_18-2);
      }

      .cls-20 {
        fill: url(#Nouvelle_nuance_de_dégradé_3-4);
      }

      .cls-21 {
        fill: url(#Nouvelle_nuance_de_dégradé_3-3);
      }

      .cls-22 {
        fill: url(#Nouvelle_nuance_de_dégradé_3-5);
      }

      .cls-23 {
        fill: url(#Nouvelle_nuance_de_dégradé_3-2);
      }

      .cls-24 {
        fill: url(#Nouvelle_nuance_de_dégradé_6-6);
      }

      .cls-25 {
        fill: url(#Nouvelle_nuance_de_dégradé_6-7);
      }

      .cls-26 {
        fill: url(#Nouvelle_nuance_de_dégradé_6-8);
      }

      .cls-27 {
        fill: url(#Nouvelle_nuance_de_dégradé_6-3);
      }

      .cls-28 {
        fill: url(#Nouvelle_nuance_de_dégradé_6-5);
      }

      .cls-29 {
        fill: url(#Nouvelle_nuance_de_dégradé_6-2);
      }

      .cls-30 {
        fill: url(#Nouvelle_nuance_de_dégradé_6-4);
      }

      .cls-31 {
        fill: url(#Nouvelle_nuance_de_dégradé_5-4);
      }

      .cls-32 {
        fill: url(#Nouvelle_nuance_de_dégradé_5-2);
      }

      .cls-33 {
        fill: url(#Nouvelle_nuance_de_dégradé_5-5);
      }

      .cls-34 {
        fill: url(#Nouvelle_nuance_de_dégradé_5-3);
      }

      .cls-35 {
        fill: url(#Nouvelle_nuance_de_dégradé_5-6);
      }

      .cls-36 {
        fill: url(#Nouvelle_nuance_de_dégradé_10-3);
      }

      .cls-37 {
        fill: url(#Nouvelle_nuance_de_dégradé_10-2);
      }

      .cls-38 {
        fill: url(#Nouvelle_nuance_de_dégradé_10-5);
      }

      .cls-39 {
        fill: url(#Nouvelle_nuance_de_dégradé_10-9);
      }

      .cls-40 {
        fill: url(#Nouvelle_nuance_de_dégradé_10-8);
      }

      .cls-41 {
        fill: url(#Nouvelle_nuance_de_dégradé_10-7);
      }

      .cls-42 {
        fill: url(#Nouvelle_nuance_de_dégradé_10-6);
      }

      .cls-43 {
        fill: url(#Nouvelle_nuance_de_dégradé_10-4);
      }

      .cls-44 {
        fill: url(#Nouvelle_nuance_de_dégradé_14-2);
      }

      .cls-45 {
        fill: url(#Nouvelle_nuance_de_dégradé_27-7);
      }

      .cls-46 {
        fill: url(#Nouvelle_nuance_de_dégradé_27-6);
      }

      .cls-47 {
        fill: url(#Nouvelle_nuance_de_dégradé_27-4);
      }

      .cls-48 {
        fill: url(#Nouvelle_nuance_de_dégradé_27-5);
      }

      .cls-49 {
        fill: url(#Nouvelle_nuance_de_dégradé_27-3);
      }

      .cls-50 {
        fill: url(#Nouvelle_nuance_de_dégradé_27-2);
      }

      .cls-51 {
        fill: url(#Nouvelle_nuance_de_dégradé_27-9);
      }

      .cls-52 {
        fill: url(#Nouvelle_nuance_de_dégradé_27-8);
      }

      .cls-67 {
        isolation: isolate;
      }

      .cls-54 {
        fill: url(#Nouvelle_nuance_de_dégradé_27);
      }

      .cls-55 {
        fill: url(#Nouvelle_nuance_de_dégradé_10);
      }

      .cls-56 {
        fill: url(#Nouvelle_nuance_de_dégradé_14);
      }

      .cls-57 {
        fill: url(#Nouvelle_nuance_de_dégradé_6);
      }

      .cls-58 {
        fill: url(#Nouvelle_nuance_de_dégradé_5);
      }

      .cls-59 {
        fill: url(#Nouvelle_nuance_de_dégradé_3);
      }

      .cls-60 {
        fill: url(#Nouvelle_nuance_de_dégradé_7);
      }

      .cls-61 {
        fill: url(#Dégradé_sans_nom_18);
      }

      .cls-62 {
        fill: url(#Dégradé_sans_nom_95);
      }

      .cls-63 {
        fill: url(#Dégradé_sans_nom_84);
      }

      .cls-64 {
        fill: url(#Dégradé_sans_nom_86);
      }
    </style>
    <linearGradient id="Nouvelle_nuance_de_dégradé_6" data-name="Nouvelle nuance de dégradé 6" x1="984.4" y1="861.68" x2="1060.9" y2="861.68" gradientUnits="userSpaceOnUse">
      <stop offset="0" stop-color="#e5f4fb"/>
      <stop offset=".99" stop-color="#80caea"/>
    </linearGradient>
    <linearGradient id="Dégradé_sans_nom_18" data-name="Dégradé sans nom 18" x1="815.31" y1="459.62" x2="984.43" y2="473.21" gradientUnits="userSpaceOnUse">
      <stop offset="0" stop-color="#ec6608"/>
      <stop offset="1" stop-color="#e4003a"/>
    </linearGradient>
    <linearGradient id="Dégradé_sans_nom_86" data-name="Dégradé sans nom 86" x1="743.23" y1="868.06" x2="715.9" y2="1179.41" gradientUnits="userSpaceOnUse">
      <stop offset="0" stop-color="#fff"/>
      <stop offset=".99" stop-color="#80caea"/>
    </linearGradient>
    <linearGradient id="Nouvelle_nuance_de_dégradé_10" data-name="Nouvelle nuance de dégradé 10" x1="405.28" y1="991.81" x2="1049.97" y2="991.81" gradientUnits="userSpaceOnUse">
      <stop offset="0" stop-color="#00adba"/>
      <stop offset="1" stop-color="#4eb0b4"/>
    </linearGradient>
    <linearGradient id="Nouvelle_nuance_de_dégradé_5" data-name="Nouvelle nuance de dégradé 5" x1="777.89" y1="38.64" x2="798.73" y2="38.64" gradientUnits="userSpaceOnUse">
      <stop offset="0" stop-color="#ddedee"/>
      <stop offset="1" stop-color="#0095d4"/>
    </linearGradient>
    <linearGradient id="Nouvelle_nuance_de_dégradé_6-2" data-name="Nouvelle nuance de dégradé 6" x1="912.59" y1="816.57" x2="918.01" y2="826.21" xlink:href="#Nouvelle_nuance_de_dégradé_6"/>
    <linearGradient id="Nouvelle_nuance_de_dégradé_6-3" data-name="Nouvelle nuance de dégradé 6" x1="772.62" y1="487.26" x2="804.74" y2="487.26" xlink:href="#Nouvelle_nuance_de_dégradé_6"/>
    <linearGradient id="Nouvelle_nuance_de_dégradé_5-2" data-name="Nouvelle nuance de dégradé 5" x1="772.62" y1="965.27" x2="804.74" y2="965.27" xlink:href="#Nouvelle_nuance_de_dégradé_5"/>
    <linearGradient id="Nouvelle_nuance_de_dégradé_14" data-name="Nouvelle nuance de dégradé 14" x1="772.62" y1="1001.01" x2="804.74" y2="1001.01" gradientUnits="userSpaceOnUse">
      <stop offset="0" stop-color="#0095d4"/>
      <stop offset="1" stop-color="#242657"/>
    </linearGradient>
    <linearGradient id="Nouvelle_nuance_de_dégradé_3" data-name="Nouvelle nuance de dégradé 3" x1="645.49" y1="1076.74" x2="679.65" y2="1134.32" gradientUnits="userSpaceOnUse">
      <stop offset="0" stop-color="#0095d4"/>
      <stop offset="1" stop-color="#17428c"/>
    </linearGradient>
    <linearGradient id="Nouvelle_nuance_de_dégradé_27" data-name="Nouvelle nuance de dégradé 27" x1="567.85" y1="1131.73" x2="587.53" y2="1131.73" gradientUnits="userSpaceOnUse">
      <stop offset="0" stop-color="#e4003a"/>
      <stop offset="1" stop-color="#ec6608"/>
    </linearGradient>
    <linearGradient id="Nouvelle_nuance_de_dégradé_27-2" data-name="Nouvelle nuance de dégradé 27" x1="600.71" y1="1113.11" x2="620.39" y2="1113.11" xlink:href="#Nouvelle_nuance_de_dégradé_27"/>
    <linearGradient id="Nouvelle_nuance_de_dégradé_27-3" data-name="Nouvelle nuance de dégradé 27" x1="633.57" y1="1094.5" x2="653.25" y2="1094.5" xlink:href="#Nouvelle_nuance_de_dégradé_27"/>
    <linearGradient id="Nouvelle_nuance_de_dégradé_27-4" data-name="Nouvelle nuance de dégradé 27" x1="666.43" y1="1075.88" x2="686.11" y2="1075.88" xlink:href="#Nouvelle_nuance_de_dégradé_27"/>
    <linearGradient id="Nouvelle_nuance_de_dégradé_27-5" data-name="Nouvelle nuance de dégradé 27" x1="699.29" y1="1057.27" x2="718.97" y2="1057.27" xlink:href="#Nouvelle_nuance_de_dégradé_27"/>
    <linearGradient id="Dégradé_sans_nom_86-2" data-name="Dégradé sans nom 86" x1="455.17" y1="1034.37" x2="776.41" y2="1034.37" xlink:href="#Dégradé_sans_nom_86"/>
    <linearGradient id="Dégradé_sans_nom_84" data-name="Dégradé sans nom 84" x1="633.45" y1="976.39" x2="727.82" y2="976.39" gradientUnits="userSpaceOnUse">
      <stop offset="0" stop-color="#4eb0b4"/>
      <stop offset="1" stop-color="#b3dddf"/>
    </linearGradient>
    <linearGradient id="Nouvelle_nuance_de_dégradé_10-2" data-name="Nouvelle nuance de dégradé 10" x1="686.28" y1="1002.67" x2="727.82" y2="1002.67" xlink:href="#Nouvelle_nuance_de_dégradé_10"/>
    <linearGradient id="Nouvelle_nuance_de_dégradé_10-3" data-name="Nouvelle nuance de dégradé 10" x1="633.45" y1="999.37" x2="686.28" y2="999.37" xlink:href="#Nouvelle_nuance_de_dégradé_10"/>
    <linearGradient id="Nouvelle_nuance_de_dégradé_7" data-name="Nouvelle nuance de dégradé 7" x1="861.3" y1="906.22" x2="1001.42" y2="906.22" gradientUnits="userSpaceOnUse">
      <stop offset="0" stop-color="#99d4ee"/>
      <stop offset="1" stop-color="#0095d4"/>
    </linearGradient>
    <linearGradient id="Nouvelle_nuance_de_dégradé_3-2" data-name="Nouvelle nuance de dégradé 3" x1="959.88" y1="948.6" x2="1001.42" y2="948.6" xlink:href="#Nouvelle_nuance_de_dégradé_3"/>
    <linearGradient id="Nouvelle_nuance_de_dégradé_10-4" data-name="Nouvelle nuance de dégradé 10" x1="861.3" y1="932.14" x2="959.88" y2="932.14" xlink:href="#Nouvelle_nuance_de_dégradé_10"/>
    <linearGradient id="Dégradé_sans_nom_84-2" data-name="Dégradé sans nom 84" x1="575.99" y1="1010.42" x2="670.36" y2="1010.42" xlink:href="#Dégradé_sans_nom_84"/>
    <linearGradient id="Nouvelle_nuance_de_dégradé_10-5" data-name="Nouvelle nuance de dégradé 10" x1="628.81" y1="1036.71" x2="670.36" y2="1036.71" xlink:href="#Nouvelle_nuance_de_dégradé_10"/>
    <linearGradient id="Nouvelle_nuance_de_dégradé_10-6" data-name="Nouvelle nuance de dégradé 10" x1="575.99" y1="1033.41" x2="628.81" y2="1033.41" xlink:href="#Nouvelle_nuance_de_dégradé_10"/>
    <linearGradient id="Dégradé_sans_nom_84-3" data-name="Dégradé sans nom 84" x1="518.52" y1="1044.46" x2="612.89" y2="1044.46" xlink:href="#Dégradé_sans_nom_84"/>
    <linearGradient id="Nouvelle_nuance_de_dégradé_10-7" data-name="Nouvelle nuance de dégradé 10" x1="571.35" y1="1070.74" x2="612.89" y2="1070.74" xlink:href="#Nouvelle_nuance_de_dégradé_10"/>
    <linearGradient id="Nouvelle_nuance_de_dégradé_10-8" data-name="Nouvelle nuance de dégradé 10" x1="518.52" y1="1067.45" x2="571.35" y2="1067.45" xlink:href="#Nouvelle_nuance_de_dégradé_10"/>
    <linearGradient id="Nouvelle_nuance_de_dégradé_6-4" data-name="Nouvelle nuance de dégradé 6" x1="19.51" y1="1231" x2="584.71" y2="1231" xlink:href="#Nouvelle_nuance_de_dégradé_6"/>
    <linearGradient id="Dégradé_sans_nom_84-4" data-name="Dégradé sans nom 84" x1="191.84" y1="1296.59" x2="259.49" y2="1296.59" xlink:href="#Dégradé_sans_nom_84"/>
    <linearGradient id="Nouvelle_nuance_de_dégradé_10-9" data-name="Nouvelle nuance de dégradé 10" x1="217.95" y1="1315" x2="259.49" y2="1315" xlink:href="#Nouvelle_nuance_de_dégradé_10"/>
    <linearGradient id="Nouvelle_nuance_de_dégradé_10-10" data-name="Nouvelle nuance de dégradé 10" x1="191.84" y1="1319.58" x2="217.95" y2="1319.58" xlink:href="#Nouvelle_nuance_de_dégradé_10"/>
    <linearGradient id="Dégradé_sans_nom_84-5" data-name="Dégradé sans nom 84" x1="116.65" y1="1255.03" x2="184.3" y2="1255.03" xlink:href="#Dégradé_sans_nom_84"/>
    <linearGradient id="Nouvelle_nuance_de_dégradé_10-11" data-name="Nouvelle nuance de dégradé 10" x1="142.76" y1="1273.44" x2="184.3" y2="1273.44" xlink:href="#Nouvelle_nuance_de_dégradé_10"/>
    <linearGradient id="Nouvelle_nuance_de_dégradé_10-12" data-name="Nouvelle nuance de dégradé 10" x1="116.65" y1="1278.02" x2="142.76" y2="1278.02" xlink:href="#Nouvelle_nuance_de_dégradé_10"/>
    <linearGradient id="Nouvelle_nuance_de_dégradé_3-3" data-name="Nouvelle nuance de dégradé 3" x1="626.05" y1="1072.2" x2="1049.94" y2="1072.2" xlink:href="#Nouvelle_nuance_de_dégradé_3"/>
    <linearGradient id="Dégradé_sans_nom_95" data-name="Dégradé sans nom 95" x1="324.84" y1="1320.66" x2="47" y2="1414.28" gradientUnits="userSpaceOnUse">
      <stop offset="0" stop-color="#00a3b0"/>
      <stop offset="1" stop-color="#c5e5e6"/>
    </linearGradient>
    <linearGradient id="Nouvelle_nuance_de_dégradé_3-4" data-name="Nouvelle nuance de dégradé 3" x1="55.8" y1="1232.29" x2="1049.98" y2="1232.29" xlink:href="#Nouvelle_nuance_de_dégradé_3"/>
    <linearGradient id="Nouvelle_nuance_de_dégradé_3-5" data-name="Nouvelle nuance de dégradé 3" x1="544.69" y1="1151.33" x2="428.53" y2="1151.33" xlink:href="#Nouvelle_nuance_de_dégradé_3"/>
    <linearGradient id="Nouvelle_nuance_de_dégradé_10-13" data-name="Nouvelle nuance de dégradé 10" x1="401.2" y1="1117.34" x2="546.33" y2="1117.34" xlink:href="#Nouvelle_nuance_de_dégradé_10"/>
    <linearGradient id="Nouvelle_nuance_de_dégradé_6-5" data-name="Nouvelle nuance de dégradé 6" x1="257.4" y1="1203.8" x2="380.38" y2="1203.8" xlink:href="#Nouvelle_nuance_de_dégradé_6"/>
    <linearGradient id="Nouvelle_nuance_de_dégradé_27-6" data-name="Nouvelle nuance de dégradé 27" x1="365.5" y1="1188.98" x2="415.59" y2="1188.98" xlink:href="#Nouvelle_nuance_de_dégradé_27"/>
    <linearGradient id="Nouvelle_nuance_de_dégradé_27-7" data-name="Nouvelle nuance de dégradé 27" x1="315.73" y1="1161" x2="307.44" y2="1176.62" xlink:href="#Nouvelle_nuance_de_dégradé_27"/>
    <linearGradient id="Dégradé_sans_nom_86-3" data-name="Dégradé sans nom 86" x1="443.81" y1="1013.98" x2="373.54" y2="1128.67" xlink:href="#Dégradé_sans_nom_86"/>
    <linearGradient id="Nouvelle_nuance_de_dégradé_6-6" data-name="Nouvelle nuance de dégradé 6" x1="245.5" y1="1252.57" x2="238.18" y2="1267.21" xlink:href="#Nouvelle_nuance_de_dégradé_6"/>
    <linearGradient id="Nouvelle_nuance_de_dégradé_5-3" data-name="Nouvelle nuance de dégradé 5" x1="417.69" y1="244.53" x2="438.52" y2="244.53" xlink:href="#Nouvelle_nuance_de_dégradé_5"/>
    <linearGradient id="Nouvelle_nuance_de_dégradé_5-4" data-name="Nouvelle nuance de dégradé 5" x1="623.07" y1="988.18" x2="625.48" y2="1001.45" xlink:href="#Nouvelle_nuance_de_dégradé_5"/>
    <linearGradient id="Dégradé_sans_nom_18-2" data-name="Dégradé sans nom 18" x1="642.57" y1="682.95" x2="828.9" y2="766.98" xlink:href="#Dégradé_sans_nom_18"/>
    <linearGradient id="Nouvelle_nuance_de_dégradé_5-5" data-name="Nouvelle nuance de dégradé 5" x1="474.12" y1="1029.52" x2="498.64" y2="1029.52" xlink:href="#Nouvelle_nuance_de_dégradé_5"/>
    <linearGradient id="Nouvelle_nuance_de_dégradé_6-7" data-name="Nouvelle nuance de dégradé 6" x1="412.42" y1="620.55" x2="444.53" y2="620.55" xlink:href="#Nouvelle_nuance_de_dégradé_6"/>
    <linearGradient id="Nouvelle_nuance_de_dégradé_5-6" data-name="Nouvelle nuance de dégradé 5" x1="412.42" y1="1025.97" x2="444.53" y2="1025.97" xlink:href="#Nouvelle_nuance_de_dégradé_5"/>
    <linearGradient id="Nouvelle_nuance_de_dégradé_14-2" data-name="Nouvelle nuance de dégradé 14" x1="412.41" y1="1061.71" x2="444.53" y2="1061.71" xlink:href="#Nouvelle_nuance_de_dégradé_14"/>
    <linearGradient id="Dégradé_sans_nom_18-3" data-name="Dégradé sans nom 18" x1="376.96" y1="568.33" x2="604.96" y2="663.46" xlink:href="#Dégradé_sans_nom_18"/>
    <linearGradient id="Nouvelle_nuance_de_dégradé_10-14" data-name="Nouvelle nuance de dégradé 10" x1="363.07" y1="1164.45" x2="415.59" y2="1164.45" xlink:href="#Nouvelle_nuance_de_dégradé_10"/>
    <linearGradient id="Dégradé_sans_nom_84-6" data-name="Dégradé sans nom 84" x1="304.03" y1="1154.21" x2="314.28" y2="1137.62" xlink:href="#Dégradé_sans_nom_84"/>
    <linearGradient id="Nouvelle_nuance_de_dégradé_6-8" data-name="Nouvelle nuance de dégradé 6" x1="261.08" y1="1128.78" x2="363.07" y2="1128.78" xlink:href="#Nouvelle_nuance_de_dégradé_6"/>
    <linearGradient id="Nouvelle_nuance_de_dégradé_27-8" data-name="Nouvelle nuance de dégradé 27" x1="458.77" y1="1151.82" x2="472.23" y2="1151.82" xlink:href="#Nouvelle_nuance_de_dégradé_27"/>
    <linearGradient id="Nouvelle_nuance_de_dégradé_27-9" data-name="Nouvelle nuance de dégradé 27" x1="490.98" y1="1133.74" x2="504.44" y2="1133.74" xlink:href="#Nouvelle_nuance_de_dégradé_27"/>
    <linearGradient id="Dégradé_sans_nom_18-4" data-name="Dégradé sans nom 18" x1="263.93" y1="818.85" x2="490.34" y2="1034.04" xlink:href="#Dégradé_sans_nom_18"/>
  </defs>
  <g class="cls-67">
    <g id="Calque_2" data-name="Calque 2">
      <g id="Bateau">
        <g id="Bateau-2" data-name="Bateau">
          <g>
            <g>
              <path class="cls-4" d="M1050.71,1034.89l-104.25-63.9c-19.89-12.19-52.74-12.71-73-1.16l-474.6,270.54-187.44,106.85c-30.4,17.33-74.69,52.54-98.42,78.24l-106.88,115.76c-7.91,8.57-8.17,19.03-.58,23.25,7.59,4.22,22.99,5.1,34.22,1.95l240.66-67.42c33.69-9.44,86.13-31.34,116.52-48.66l187.44-106.85,465.66-265.45c10.62-6.05,15.75-14.26,15.38-22.46-.34-7.45-5.23-14.9-14.7-20.7Z"/>
              <g>
                <path class="cls-57" d="M984.4,874.61c3.66,7.69,15.37,19.4,27.82,12.08,12.44-7.32,26.35-13.18,35.87-2.2l12.81-40.26c-9.52-10.98-23.43-5.12-35.87,2.2-12.44,7.32-24.16-4.39-27.82-12.08l-12.81,40.26Z"/>
                <path class="cls-66" d="M978.54,886.32c2.2,0,19.76-55.63,19.76-55.63"/>
                <g>
                  <line class="cls-66" x1="788.31" y1="12.98" x2="901.62" y2="849.45"/>
                  <polygon class="cls-61" points="795.17 34.38 795.17 881.62 1027.74 749.25 795.17 34.38"/>
                  <path class="cls-64" d="M1035.75,935.62l-100.83-61.8c-19.23-11.79-51.01-12.29-70.61-1.12l-459.03,261.67,179.43,99.75,450.38-256.74c10.27-5.85,15.24-13.8,14.88-21.73-.33-7.21-5.06-14.41-14.22-20.02Z"/>
                  <polygon class="cls-4" points="838.42 931.37 937 987.95 978.54 964.29 879.97 907.7 838.42 931.37"/>
                  <path class="cls-55" d="M405.28,1134.37l459.03-261.67c19.6-11.17,51.37-10.67,70.61,1.12l100.83,61.8c9.16,5.61,13.89,12.81,14.22,20.02v-15.37c-.33-7.21-5.06-14.41-14.22-20.02l-100.83-61.8c-19.23-11.79-51.01-12.29-70.61-1.12l-459.03,261.67v15.37Z"/>
                  <g>
                    <path class="cls-1" d="M788.31,12.98c-5.75,0-10.42-2.91-10.42-6.49s4.67-6.49,10.42-6.49,10.42,2.91,10.42,6.49-4.67,6.49-10.42,6.49Z"/>
                    <path class="cls-58" d="M777.89,64.31c0,3.58,4.67,6.49,10.42,6.49s10.42-2.91,10.42-6.49V6.49c0,3.58-4.67,6.49-10.42,6.49s-10.42-2.91-10.42-6.49v57.82Z"/>
                    <path class="cls-29" d="M799.65,895.14c-2.52,0-4.95-1.31-6.29-3.65-1.99-3.47-.78-7.89,2.69-9.87l231.69-132.37c3.46-2,7.89-.78,9.87,2.69,1.99,3.47.78,7.89-2.69,9.87l-231.69,132.37c-1.13.65-2.37.95-3.58.95Z"/>
                    <path class="cls-27" d="M777.89,64.31c0,3.58,4.67,6.49,10.42,6.49s10.42-2.91,10.42-6.49l6.01,835.9c0,5.51-7.2,10-16.06,10s-16.06-4.49-16.06-10l5.27-835.9Z"/>
                    <path class="cls-32" d="M772.62,1020.33c0,5.51,7.2,10,16.06,10s16.06-4.49,16.06-10v-120.13c0,5.51-7.2,10-16.06,10s-16.06-4.49-16.06-10v120.13Z"/>
                    <path class="cls-56" d="M788.68,981.68c-8.85,0-16.06-4.49-16.06-10v48.66c0,5.51,7.2,10,16.06,10s16.06-4.49,16.06-10v-48.66c0,5.51-7.2,10-16.06,10Z"/>
                  </g>
                  <polygon class="cls-59" points="544.72 1125.44 776.41 993.07 776.41 1078.85 544.72 1211.22 544.72 1125.44"/>
                  <polygon class="cls-54" points="567.85 1148.72 587.53 1137.02 587.53 1114.73 567.85 1126.44 567.85 1148.72"/>
                  <polygon class="cls-50" points="600.71 1130.11 620.39 1118.4 620.39 1096.12 600.71 1107.82 600.71 1130.11"/>
                  <polygon class="cls-49" points="633.57 1111.49 653.25 1099.79 653.25 1077.5 633.57 1089.21 633.57 1111.49"/>
                  <polygon class="cls-47" points="666.43 1092.88 686.11 1081.17 686.11 1058.89 666.43 1070.59 666.43 1092.88"/>
                  <polygon class="cls-48" points="699.29 1074.26 718.97 1062.56 718.97 1040.27 699.29 1051.97 699.29 1074.26"/>
                  <g>
                    <polygon class="cls-15" points="544.72 1125.44 776.41 993.07 686.86 943.29 455.17 1075.66 544.72 1125.44"/>
                    <g>
                      <g>
                        <polygon class="cls-63" points="633.45 973.09 686.28 1003.34 727.82 979.68 675 949.43 633.45 973.09"/>
                        <polygon class="cls-37" points="686.28 1003.34 727.82 979.68 727.82 1001.99 686.28 1025.65 686.28 1003.34"/>
                        <polygon class="cls-36" points="686.28 1003.34 633.45 973.09 633.45 995.4 686.28 1025.65 686.28 1003.34"/>
                      </g>
                      <g>
                        <polygon class="cls-60" points="861.3 889.76 959.88 946.35 1001.42 922.68 902.84 866.1 861.3 889.76"/>
                        <polygon class="cls-23" points="959.88 946.35 1001.42 922.68 1001.42 950.85 959.88 974.52 959.88 946.35"/>
                        <polygon class="cls-43" points="959.88 946.35 861.3 889.76 861.3 917.93 959.88 974.52 959.88 946.35"/>
                      </g>
                      <g>
                        <polygon class="cls-13" points="575.99 1007.13 628.81 1037.38 670.36 1013.72 617.53 983.47 575.99 1007.13"/>
                        <polygon class="cls-38" points="628.81 1037.38 670.36 1013.72 670.36 1036.03 628.81 1059.69 628.81 1037.38"/>
                        <polygon class="cls-42" points="628.81 1037.38 575.99 1007.13 575.99 1029.44 628.81 1059.69 628.81 1037.38"/>
                      </g>
                      <g>
                        <polygon class="cls-12" points="518.52 1041.17 571.35 1071.42 612.89 1047.76 560.07 1017.51 518.52 1041.17"/>
                        <polygon class="cls-41" points="571.35 1071.42 612.89 1047.76 612.89 1070.07 571.35 1093.73 571.35 1071.42"/>
                        <polygon class="cls-40" points="571.35 1071.42 518.52 1041.17 518.52 1063.48 571.35 1093.73 571.35 1071.42"/>
                      </g>
                    </g>
                    <line class="cls-65" x1="780.9" y1="10.63" x2="431.11" y2="210.03"/>
                  </g>
                  <path class="cls-30" d="M223.99,1175.75c-29.4,16.76-72.24,50.81-95.19,75.68l-103.38,111.96c-7.65,8.29-7.9,18.41-.56,22.49,7.34,4.08,22.24,4.93,33.1,1.89l232.76-65.21c32.59-9.13,83.3-30.31,112.7-47.07l181.29-103.35-179.43-99.75-181.29,103.34Z"/>
                  <g>
                    <polygon class="cls-10" points="191.84 1301.17 217.95 1315.68 259.49 1292.01 233.38 1277.5 191.84 1301.17"/>
                    <polygon class="cls-39" points="217.95 1315.68 259.49 1292.01 259.49 1314.32 217.95 1337.99 217.95 1315.68"/>
                    <polygon class="cls-5" points="217.95 1315.68 191.84 1301.17 191.84 1323.47 217.95 1337.99 217.95 1315.68"/>
                  </g>
                  <g>
                    <polygon class="cls-14" points="116.65 1259.6 142.76 1274.12 184.3 1250.45 158.19 1235.94 116.65 1259.6"/>
                    <polygon class="cls-9" points="142.76 1274.12 184.3 1250.45 184.3 1272.76 142.76 1296.43 142.76 1274.12"/>
                    <polygon class="cls-6" points="142.76 1274.12 116.65 1259.6 116.65 1281.91 142.76 1296.43 142.76 1274.12"/>
                  </g>
                  <g>
                    <line class="cls-66" x1="544.83" y1="1176.8" x2="544.83" y2="1194.88"/>
                    <line class="cls-66" x1="504.95" y1="1199.53" x2="504.95" y2="1217.62"/>
                    <line class="cls-66" x1="465.08" y1="1222.26" x2="465.08" y2="1240.35"/>
                    <line class="cls-66" x1="425.2" y1="1244.99" x2="425.2" y2="1263.08"/>
                    <line class="cls-66" x1="385.32" y1="1267.72" x2="385.32" y2="1285.81"/>
                    <line class="cls-66" x1="345.45" y1="1285.06" x2="345.45" y2="1303.15"/>
                    <line class="cls-66" x1="305.57" y1="1300.25" x2="305.57" y2="1318.33"/>
                    <line class="cls-66" x1="266.56" y1="1311.25" x2="266.56" y2="1329.33"/>
                    <line class="cls-66" x1="223.57" y1="1323.29" x2="223.57" y2="1341.38"/>
                    <line class="cls-66" x1="167.62" y1="1338.96" x2="167.62" y2="1357.05"/>
                    <line class="cls-66" x1="112.79" y1="1354.32" x2="112.79" y2="1372.41"/>
                    <line class="cls-66" x1="57.96" y1="1369.68" x2="57.96" y2="1387.77"/>
                    <path class="cls-66" d="M405.28,1054.32l-181.29,103.34c-29.4,16.76-72.24,50.81-95.19,75.68l-112.08,115.59c-7.65,8.29-7.9,18.41-.56,22.49,7.34,4.08,22.24,4.93,33.1,1.89l241.46-68.83c32.59-9.13,83.3-30.31,112.7-47.07l181.29-103.35v18.09"/>
                    <line class="cls-66" x1="584.71" y1="1154.06" x2="584.71" y2="1172.15"/>
                  </g>
                  <path class="cls-21" d="M1035.09,977.37c9.61-5.48,14.55-12.78,14.85-20.2v-15.37c-.3,7.41-5.24,14.72-14.85,20.2l-409.04,232.95,13.91,7.67,395.12-225.24Z"/>
                  <path class="cls-62" d="M1049.94,995.06v-37.89c-.3,7.41-5.24,14.72-14.85,20.2l-358.48,204.35c-32,17.74-54.97-30.62-91.9-9.57l-91.03,51.89-90.26,51.45c-29.4,16.76-80.11,37.94-112.7,47.07l-232.76,65.21c-10.86,3.04-25.76,2.19-33.1-1.89-.78-.43-1.45-.95-2.03-1.52-.57-.53-1.04-1.12-1.46-1.74l34.43,76.18,12.56,26.62c4.8,8.72,21.01,20.73,61.07,10.65l161.29-45.18c32.59-9.13,83.3-30.31,112.7-47.07l181.29-103.35,436.25-248.69c2.87-1.64,5.27-3.45,7.32-5.37,23.65-19.05,21.67-41.78,21.67-51.33Z"/>
                  <path class="cls-20" d="M1049.94,995.06v-30.37c-.12,11.26-2.14,29.38-21.67,45.11-2.04,1.92-4.45,3.73-7.32,5.37l-436.25,248.69-181.29,103.35c-29.4,16.76-80.11,37.94-112.7,47.07l-161.29,45.18s-41.8,10.33-73.63-.66l12.56,26.62c4.8,8.72,21.01,20.73,61.07,10.65l161.29-45.18c32.59-9.13,83.3-30.31,112.7-47.07l181.29-103.35,436.25-248.69c2.87-1.64,5.27-3.45,7.32-5.37,23.65-19.05,21.67-41.78,21.67-51.33Z"/>
                  <polygon class="cls-22" points="401.2 1151.88 546.33 1069.1 546.33 1150.77 401.2 1233.56 401.2 1151.88"/>
                  <polygon class="cls-8" points="401.2 1165.57 546.33 1082.79 546.33 1069.1 401.2 1151.88 401.2 1165.57"/>
                  <polygon class="cls-3" points="380.38 1218.08 415.59 1197.93 415.59 1237.75 380.38 1257.89 380.38 1218.08"/>
                  <polygon class="cls-28" points="257.4 1149.71 380.38 1218.08 380.38 1257.89 257.4 1189.53 257.4 1149.71"/>
                  <polygon class="cls-46" points="365.5 1188.42 415.59 1159.88 415.59 1197.93 380.38 1218.08 365.5 1188.42"/>
                  <polygon class="cls-45" points="242.52 1120.05 365.5 1188.42 380.38 1218.08 257.4 1149.71 242.52 1120.05"/>
                  <polygon class="cls-53" points="276.24 1270.53 208.02 1232.61 257.4 1160.73 380.38 1229.1 276.24 1270.53"/>
                  <polygon class="cls-16" points="452.1 1016.71 306.96 1099.49 292.61 1091.52 242.52 1120.05 365.5 1188.42 415.59 1159.88 401.2 1151.88 546.33 1069.1 452.1 1016.71"/>
                  <polygon class="cls-3" points="380.38 1257.89 276.24 1286 276.24 1270.53 380.38 1229.1 380.38 1257.89"/>
                  <polygon class="cls-24" points="276.24 1270.53 208.02 1232.61 208.02 1248.08 276.24 1286 276.24 1270.53"/>
                  <g>
                    <path class="cls-1" d="M428.11,218.86c-5.75,0-10.42-2.91-10.42-6.49s4.67-6.49,10.42-6.49,10.42,2.91,10.42,6.49-4.67,6.49-10.42,6.49Z"/>
                    <path class="cls-34" d="M417.69,270.19c0,3.58,4.67,6.49,10.42,6.49s10.42-2.91,10.42-6.49v-57.82c0,3.58-4.67,6.49-10.42,6.49s-10.42-2.91-10.42-6.49v57.82Z"/>
                    <path class="cls-31" d="M495.23,1025.51c-3.43,0-6.47-2.44-7.11-5.94-.72-3.94,1.89-7.7,5.82-8.42l258.06-47.03c3.94-.73,7.7,1.89,8.42,5.82.72,3.94-1.89,7.7-5.82,8.42l-258.06,47.03c-.44.08-.88.12-1.31.12Z"/>
                    <polygon class="cls-19" points="775.6 352.63 501.71 1009.74 752 964.13 775.6 352.63"/>
                    <path class="cls-33" d="M474.12,999.22v52.96c0,4.21,5.5,7.64,12.26,7.64s12.26-3.43,12.26-7.64v-52.96h-24.52Z"/>
                    <path class="cls-1" d="M486.38,1006.86c-6.76,0-12.26-3.43-12.26-7.64s5.5-7.64,12.26-7.64,12.26,3.43,12.26,7.64-5.5,7.64-12.26,7.64Z"/>
                    <path class="cls-25" d="M417.69,270.19c0,3.58,4.67,6.49,10.42,6.49s10.42-2.91,10.42-6.49l6.01,690.71c0,5.51-7.2,10-16.06,10s-16.06-4.49-16.06-10l5.27-690.71Z"/>
                    <path class="cls-35" d="M412.42,1081.03c0,5.51,7.2,10,16.06,10s16.06-4.49,16.06-10v-120.13c0,5.51-7.2,10-16.06,10s-16.06-4.49-16.06-10v120.13Z"/>
                    <path class="cls-44" d="M428.47,1042.38c-8.85,0-16.06-4.49-16.06-10v48.66c0,5.51,7.2,10,16.06,10s16.06-4.49,16.06-10v-48.66c0,5.51-7.2,10-16.06,10Z"/>
                  </g>
                  <path class="cls-17" d="M756.49,290.45c-63.44-70.28-303.36-73.27-303.36-73.27v830.52l303.36-757.25Z"/>
                  <line class="cls-65" x1="445.66" y1="1065.32" x2="776.55" y2="239.36"/>
                  <g>
                    <polygon class="cls-53" points="302.62 1069.76 261.08 1093.42 363.07 1150.12 404.61 1126.45 302.62 1069.76"/>
                    <polygon class="cls-7" points="363.07 1164.14 404.61 1140.47 415.59 1159.88 365.5 1188.42 363.07 1164.14"/>
                    <polygon class="cls-11" points="363.07 1164.14 261.08 1107.44 242.52 1120.05 365.5 1188.42 363.07 1164.14"/>
                    <polygon class="cls-26" points="363.07 1164.14 261.08 1107.44 261.08 1093.42 363.07 1150.12 363.07 1164.14"/>
                    <polygon class="cls-3" points="363.07 1164.14 404.61 1140.47 404.61 1126.45 363.07 1150.12 363.07 1164.14"/>
                  </g>
                  <polygon class="cls-2" points="426.56 1184.89 440.02 1177.21 440.02 1154.93 426.56 1162.6 426.56 1184.89"/>
                  <polygon class="cls-52" points="458.77 1166.81 472.23 1159.13 472.23 1136.84 458.77 1144.52 458.77 1166.81"/>
                  <polygon class="cls-2" points="523.19 1163.82 536.65 1156.15 536.65 1100.68 523.19 1108.35 523.19 1163.82"/>
                  <polygon class="cls-2" points="734.78 1101.54 757.47 1089.1 757.47 1019.79 734.78 1032.23 734.78 1101.54"/>
                  <polygon class="cls-51" points="490.98 1148.72 504.44 1141.04 504.44 1118.76 490.98 1126.44 490.98 1148.72"/>
                  <path class="cls-18" d="M420.73,218.22L19.58,1336.28s265-88.33,367.48-189.35l33.67-928.71Z"/>
                  <line class="cls-65" x1="420.73" y1="218.22" x2="11.77" y2="1356.29"/>
                  <line class="cls-65" x1="756.49" y1="290.45" x2="781.87" y2="310.94"/>
                </g>
              </g>
            </g>
            <line class="cls-66" x1="1049.97" y1="940.27" x2="798.73" y2="64.31"/>
          </g>
        </g>
      </g>
    </g>
  </g>
</svg>