<svg width="129" height="14" viewBox="0 0 129 14" fill="none" xmlns="http://www.w3.org/2000/svg">
<path d="M115.35 6.66676C115.35 10.3487 118.334 13.3334 122.016 13.3334C125.698 13.3334 128.683 10.3487 128.683 6.66676C128.683 2.98486 125.698 9.19453e-05 122.016 9.16234e-05C118.334 9.13015e-05 115.35 2.98486 115.35 6.66676ZM-0.000650883 6.66675C-0.000651205 10.3486 2.98412 13.3334 6.66602 13.3334C10.3479 13.3334 13.3327 10.3486 13.3327 6.66675C13.3327 2.98485 10.3479 8.1861e-05 6.66602 8.15392e-05C2.98412 8.12173e-05 -0.000650561 2.98485 -0.000650883 6.66675ZM122.016 6.66676L122.016 5.41676L6.66602 5.41675L6.66602 6.66675L6.66602 7.91675L122.016 7.91676L122.016 6.66676Z" fill="#137BB7"/>
</svg>
