<?xml version="1.0" encoding="UTF-8"?>
<svg id="Calque_2" data-name="Calque 2" xmlns="http://www.w3.org/2000/svg" xmlns:xlink="http://www.w3.org/1999/xlink" viewBox="0 0 209.8 2225.21">
  <defs>
    <style>
      .cls-1 {
        fill: #fbdcc6;
        opacity: .29;
      }

      .cls-1, .cls-2, .cls-3, .cls-4, .cls-5, .cls-6, .cls-7, .cls-8, .cls-9, .cls-10, .cls-11, .cls-12, .cls-13, .cls-14, .cls-15, .cls-16, .cls-17, .cls-18, .cls-19, .cls-20, .cls-21, .cls-22, .cls-23, .cls-24, .cls-25, .cls-26, .cls-27, .cls-28, .cls-29, .cls-30, .cls-31, .cls-32, .cls-33, .cls-34, .cls-35, .cls-36, .cls-37, .cls-38, .cls-39, .cls-40, .cls-41, .cls-42, .cls-43, .cls-44, .cls-45, .cls-46, .cls-47, .cls-48, .cls-49, .cls-50, .cls-51, .cls-52, .cls-53, .cls-54, .cls-55, .cls-56, .cls-57, .cls-58, .cls-59, .cls-60, .cls-61, .cls-62, .cls-63, .cls-64, .cls-65, .cls-66, .cls-67, .cls-68, .cls-69, .cls-70, .cls-71, .cls-72, .cls-73, .cls-74, .cls-75, .cls-76, .cls-77, .cls-78, .cls-79, .cls-80, .cls-81, .cls-82, .cls-83, .cls-84, .cls-85, .cls-86, .cls-87, .cls-88, .cls-89, .cls-90, .cls-91, .cls-92, .cls-93, .cls-94, .cls-95, .cls-96, .cls-97, .cls-98, .cls-99, .cls-100, .cls-101, .cls-102, .cls-103, .cls-104, .cls-105, .cls-106, .cls-107, .cls-108 {
        stroke-width: 0px;
      }

      .cls-2 {
        fill: #e4003a;
      }

      .cls-3 {
        opacity: .05;
      }

      .cls-3, .cls-4, .cls-6, .cls-9, .cls-10, .cls-13, .cls-18, .cls-20, .cls-22, .cls-30, .cls-34, .cls-35, .cls-40, .cls-61, .cls-63, .cls-64, .cls-67, .cls-69, .cls-71, .cls-74, .cls-81, .cls-90 {
        fill: #ec6608;
      }

      .cls-4 {
        opacity: .1;
      }

      .cls-5 {
        fill: #f7c099;
        opacity: .52;
      }

      .cls-6 {
        opacity: .52;
      }

      .cls-7 {
        fill: #f0893f;
        opacity: .97;
      }

      .cls-8 {
        fill: #fad8bf;
        opacity: .32;
      }

      .cls-9 {
        opacity: .62;
      }

      .cls-10 {
        opacity: .24;
      }

      .cls-11 {
        fill: #fdefe5;
        opacity: .13;
      }

      .cls-12 {
        fill: #ea4e14;
      }

      .cls-13 {
        opacity: .95;
      }

      .cls-14 {
        fill: #ec610a;
      }

      .cls-15 {
        fill: #e83122;
      }

      .cls-16 {
        fill: #ea5312;
      }

      .cls-17 {
        fill: #f6b486;
        opacity: .61;
      }

      .cls-19 {
        fill: #f08539;
      }

      .cls-20 {
        opacity: .86;
      }

      .cls-21 {
        fill: #fffbf9;
        opacity: .03;
      }

      .cls-22 {
        opacity: .43;
      }

      .cls-23 {
        fill: #e6182e;
      }

      .cls-24 {
        fill: #e94419;
      }

      .cls-25 {
        fill: url(#Dégradé_sans_nom_85-3);
      }

      .cls-26 {
        fill: url(#Dégradé_sans_nom_85-2);
      }

      .cls-27 {
        fill: url(#Dégradé_sans_nom_78-2);
      }

      .cls-28 {
        fill: #e72727;
      }

      .cls-29 {
        fill: #e93a1d;
      }

      .cls-30 {
        opacity: .67;
      }

      .cls-31 {
        fill: #fdebdf;
        opacity: .16;
      }

      .cls-32 {
        fill: #e83520;
      }

      .cls-33 {
        fill: #f5b07f;
        opacity: .65;
      }

      .cls-34 {
        opacity: .33;
      }

      .cls-35, .cls-85 {
        opacity: 0;
      }

      .cls-36 {
        fill: #f29553;
        opacity: .87;
      }

      .cls-37 {
        fill: #f3a066;
        opacity: .77;
      }

      .cls-38 {
        fill: #e93f1b;
      }

      .cls-39 {
        fill: #f39c5f;
        opacity: .81;
      }

      .cls-40 {
        opacity: .48;
      }

      .cls-41 {
        fill: url(#Nouvelle_nuance_de_dégradé_8-8);
      }

      .cls-42 {
        fill: url(#Nouvelle_nuance_de_dégradé_8-5);
      }

      .cls-43 {
        fill: url(#Nouvelle_nuance_de_dégradé_8-7);
      }

      .cls-44 {
        fill: url(#Nouvelle_nuance_de_dégradé_8-2);
      }

      .cls-45 {
        fill: url(#Nouvelle_nuance_de_dégradé_8-6);
      }

      .cls-46 {
        fill: url(#Nouvelle_nuance_de_dégradé_8-3);
      }

      .cls-47 {
        fill: url(#Nouvelle_nuance_de_dégradé_8-4);
      }

      .cls-48 {
        fill: url(#Nouvelle_nuance_de_dégradé_4-2);
      }

      .cls-49 {
        fill: url(#Nouvelle_nuance_de_dégradé_1-5);
      }

      .cls-50 {
        fill: url(#Nouvelle_nuance_de_dégradé_1-4);
      }

      .cls-51 {
        fill: url(#Nouvelle_nuance_de_dégradé_1-9);
      }

      .cls-52 {
        fill: url(#Nouvelle_nuance_de_dégradé_1-3);
      }

      .cls-53 {
        fill: url(#Nouvelle_nuance_de_dégradé_1-8);
      }

      .cls-54 {
        fill: url(#Nouvelle_nuance_de_dégradé_1-2);
      }

      .cls-55 {
        fill: url(#Nouvelle_nuance_de_dégradé_1-6);
      }

      .cls-56 {
        fill: url(#Nouvelle_nuance_de_dégradé_1-7);
      }

      .cls-57 {
        fill: #e50a35;
      }

      .cls-58 {
        fill: #f29959;
        opacity: .84;
      }

      .cls-59 {
        fill: #e61330;
      }

      .cls-60 {
        fill: #f4a873;
        opacity: .71;
      }

      .cls-61 {
        opacity: .76;
      }

      .cls-62 {
        fill: #f9ccac;
        opacity: .42;
      }

      .cls-63 {
        opacity: .14;
      }

      .cls-64 {
        opacity: .38;
      }

      .cls-65 {
        fill: #f1914c;
        opacity: .9;
      }

      .cls-66 {
        fill: #fbdfcc;
        opacity: .26;
      }

      .cls-67 {
        opacity: .81;
      }

      .cls-68 {
        fill: #f8c49f;
        opacity: .48;
      }

      .cls-69 {
        opacity: .19;
      }

      .cls-70 {
        fill: #f7bc92;
        opacity: .55;
      }

      .cls-71 {
        opacity: .71;
      }

      .cls-72 {
        fill: #f9d0b2;
        opacity: .39;
      }

      .cls-73 {
        fill: #e72229;
      }

      .cls-74 {
        opacity: .57;
      }

      .cls-75 {
        fill: url(#Nouvelle_nuance_de_dégradé_12-2);
      }

      .cls-76 {
        fill: url(#Nouvelle_nuance_de_dégradé_12-4);
      }

      .cls-77 {
        fill: url(#Nouvelle_nuance_de_dégradé_12-3);
      }

      .cls-78 {
        fill: url(#Nouvelle_nuance_de_dégradé_12-5);
      }

      .cls-79 {
        fill: url(#Nouvelle_nuance_de_dégradé_27-2);
      }

      .cls-80 {
        fill: #f8c8a6;
        opacity: .45;
      }

      .cls-81 {
        opacity: .29;
      }

      .cls-82 {
        fill: #f6b88c;
        opacity: .58;
      }

      .cls-83 {
        fill: #f4a46c;
        opacity: .74;
      }

      .cls-84 {
        fill: #eb5c0d;
      }

      .cls-85, .cls-94 {
        fill: #fff;
      }

      .cls-86 {
        fill: #fef7f2;
        opacity: .06;
      }

      .cls-87 {
        fill: #f5ac79;
        opacity: .68;
      }

      .cls-88 {
        fill: #e50f33;
      }

      .cls-89 {
        fill: #f18d46;
        opacity: .94;
      }

      .cls-90 {
        opacity: .9;
      }

      .cls-91 {
        fill: #eb570f;
      }

      .cls-92 {
        fill: #e61d2c;
      }

      .cls-93 {
        fill: #fce7d9;
        opacity: .19;
      }

      .cls-95 {
        fill: #ea4916;
      }

      .cls-96 {
        fill: #fce3d2;
        opacity: .23;
      }

      .cls-97 {
        fill: #fef3ec;
        opacity: .1;
      }

      .cls-98 {
        fill: #fad4b9;
        opacity: .35;
      }

      .cls-99 {
        fill: url(#Nouvelle_nuance_de_dégradé_27);
      }

      .cls-100 {
        fill: url(#Nouvelle_nuance_de_dégradé_12);
      }

      .cls-101 {
        fill: #e72c25;
      }

      .cls-102 {
        fill: #e40538;
      }

      .cls-103 {
        fill: url(#Nouvelle_nuance_de_dégradé_4);
      }

      .cls-104 {
        fill: url(#Nouvelle_nuance_de_dégradé_1);
      }

      .cls-105 {
        fill: url(#Nouvelle_nuance_de_dégradé_8);
      }

      .cls-106 {
        fill: url(#Dégradé_sans_nom_78);
      }

      .cls-107 {
        fill: url(#Dégradé_sans_nom_77);
      }

      .cls-108 {
        fill: url(#Dégradé_sans_nom_85);
      }
    </style>
    <linearGradient id="Dégradé_sans_nom_78" data-name="Dégradé sans nom 78" x1="60.05" y1="1241.92" x2="149.75" y2="1241.92" gradientUnits="userSpaceOnUse">
      <stop offset="0" stop-color="#b8b9c4"/>
      <stop offset="1" stop-color="#404044"/>
    </linearGradient>
    <linearGradient id="Dégradé_sans_nom_85" data-name="Dégradé sans nom 85" x1="145.6" y1="910.15" x2="53.69" y2="910.15" gradientUnits="userSpaceOnUse">
      <stop offset="0" stop-color="#e5f4fb"/>
      <stop offset="1" stop-color="#80caea"/>
    </linearGradient>
    <linearGradient id="Nouvelle_nuance_de_dégradé_8" data-name="Nouvelle nuance de dégradé 8" x1="160.85" y1="1165.04" x2="206.07" y2="1165.04" gradientUnits="userSpaceOnUse">
      <stop offset="0" stop-color="#242657"/>
      <stop offset="1" stop-color="#17428c"/>
    </linearGradient>
    <linearGradient id="Nouvelle_nuance_de_dégradé_12" data-name="Nouvelle nuance de dégradé 12" x1="208.3" y1="972.54" x2="157.85" y2="972.54" gradientUnits="userSpaceOnUse">
      <stop offset="0" stop-color="#fff"/>
      <stop offset="1" stop-color="#66bfe5"/>
    </linearGradient>
    <linearGradient id="Nouvelle_nuance_de_dégradé_8-2" data-name="Nouvelle nuance de dégradé 8" x1="157.11" y1="1134.2" x2="209.8" y2="1134.2" xlink:href="#Nouvelle_nuance_de_dégradé_8"/>
    <linearGradient id="Nouvelle_nuance_de_dégradé_1" data-name="Nouvelle nuance de dégradé 1" x1="210.18" y1="1101.77" x2="158.61" y2="1101.77" gradientUnits="userSpaceOnUse">
      <stop offset="0" stop-color="#4eb0b4"/>
      <stop offset="1" stop-color="#0095d4"/>
    </linearGradient>
    <linearGradient id="Nouvelle_nuance_de_dégradé_1-2" data-name="Nouvelle nuance de dégradé 1" x1="207.02" y1="776.28" x2="155.99" y2="776.28" xlink:href="#Nouvelle_nuance_de_dégradé_1"/>
    <linearGradient id="Nouvelle_nuance_de_dégradé_12-2" data-name="Nouvelle nuance de dégradé 12" x1="170.74" y1="751.56" x2="196.18" y2="751.56" xlink:href="#Nouvelle_nuance_de_dégradé_12"/>
    <linearGradient id="Nouvelle_nuance_de_dégradé_1-3" data-name="Nouvelle nuance de dégradé 1" x1="152.73" y1="528.59" x2="53.53" y2="528.59" xlink:href="#Nouvelle_nuance_de_dégradé_1"/>
    <linearGradient id="Nouvelle_nuance_de_dégradé_4" data-name="Nouvelle nuance de dégradé 4" x1="152.73" y1="598.02" x2="53.53" y2="598.02" gradientUnits="userSpaceOnUse">
      <stop offset="0" stop-color="#eb6113"/>
      <stop offset="1" stop-color="#e4003a"/>
    </linearGradient>
    <linearGradient id="Dégradé_sans_nom_78-2" data-name="Dégradé sans nom 78" x1="52.69" y1="1222.28" x2="157.11" y2="1222.28" xlink:href="#Dégradé_sans_nom_78"/>
    <linearGradient id="Nouvelle_nuance_de_dégradé_1-4" data-name="Nouvelle nuance de dégradé 1" x1="52.69" y1="1188.15" x2="157.11" y2="1188.15" xlink:href="#Nouvelle_nuance_de_dégradé_1"/>
    <linearGradient id="Dégradé_sans_nom_85-2" data-name="Dégradé sans nom 85" x1="145.18" y1="361.57" x2="60.19" y2="361.57" xlink:href="#Dégradé_sans_nom_85"/>
    <linearGradient id="Dégradé_sans_nom_77" data-name="Dégradé sans nom 77" x1="152.73" y1="415.35" x2="53.53" y2="415.35" gradientUnits="userSpaceOnUse">
      <stop offset="0" stop-color="#b8b9c4"/>
      <stop offset="1" stop-color="#646469"/>
    </linearGradient>
    <linearGradient id="Nouvelle_nuance_de_dégradé_4-2" data-name="Nouvelle nuance de dégradé 4" x1="152.73" y1="452.81" x2="53.53" y2="452.81" xlink:href="#Nouvelle_nuance_de_dégradé_4"/>
    <linearGradient id="Nouvelle_nuance_de_dégradé_1-5" data-name="Nouvelle nuance de dégradé 1" x1="156.93" y1="236.44" x2="52.7" y2="236.44" xlink:href="#Nouvelle_nuance_de_dégradé_1"/>
    <linearGradient id="Dégradé_sans_nom_85-3" data-name="Dégradé sans nom 85" x1="153.57" y1="170.01" x2="54.25" y2="170.01" xlink:href="#Dégradé_sans_nom_85"/>
    <linearGradient id="Nouvelle_nuance_de_dégradé_12-3" data-name="Nouvelle nuance de dégradé 12" x1="144" y1="38.01" x2="70.99" y2="118.58" xlink:href="#Nouvelle_nuance_de_dégradé_12"/>
    <linearGradient id="Nouvelle_nuance_de_dégradé_8-3" data-name="Nouvelle nuance de dégradé 8" x1="3.73" x2="48.96" xlink:href="#Nouvelle_nuance_de_dégradé_8"/>
    <linearGradient id="Nouvelle_nuance_de_dégradé_12-4" data-name="Nouvelle nuance de dégradé 12" x1="51.18" y1="972.54" x2=".73" y2="972.54" xlink:href="#Nouvelle_nuance_de_dégradé_12"/>
    <linearGradient id="Nouvelle_nuance_de_dégradé_8-4" data-name="Nouvelle nuance de dégradé 8" x1="0" y1="1134.2" x2="52.69" y2="1134.2" xlink:href="#Nouvelle_nuance_de_dégradé_8"/>
    <linearGradient id="Nouvelle_nuance_de_dégradé_1-6" data-name="Nouvelle nuance de dégradé 1" x1="53.07" y1="1101.77" x2="1.5" y2="1101.77" xlink:href="#Nouvelle_nuance_de_dégradé_1"/>
    <linearGradient id="Nouvelle_nuance_de_dégradé_1-7" data-name="Nouvelle nuance de dégradé 1" x1="49.9" y1="776.28" x2="-1.12" y2="776.28" xlink:href="#Nouvelle_nuance_de_dégradé_1"/>
    <linearGradient id="Nouvelle_nuance_de_dégradé_12-5" data-name="Nouvelle nuance de dégradé 12" x1="13.63" y1="751.56" x2="39.06" y2="751.56" xlink:href="#Nouvelle_nuance_de_dégradé_12"/>
    <linearGradient id="Nouvelle_nuance_de_dégradé_8-5" data-name="Nouvelle nuance de dégradé 8" x1="52.1" y1="1322.95" x2="52.1" y2="1349.41" xlink:href="#Nouvelle_nuance_de_dégradé_8"/>
    <linearGradient id="Nouvelle_nuance_de_dégradé_8-6" data-name="Nouvelle nuance de dégradé 8" x1="16.61" y1="1299.58" x2="87.6" y2="1299.58" xlink:href="#Nouvelle_nuance_de_dégradé_8"/>
    <linearGradient id="Nouvelle_nuance_de_dégradé_1-8" data-name="Nouvelle nuance de dégradé 1" x1="93.99" y1="1280.52" x2="9.62" y2="1280.52" xlink:href="#Nouvelle_nuance_de_dégradé_1"/>
    <linearGradient id="Nouvelle_nuance_de_dégradé_27" data-name="Nouvelle nuance de dégradé 27" x1="93.15" y1="1166.15" x2="9.64" y2="1166.15" gradientUnits="userSpaceOnUse">
      <stop offset="0" stop-color="#e4003a"/>
      <stop offset="1" stop-color="#ec6608"/>
    </linearGradient>
    <linearGradient id="Nouvelle_nuance_de_dégradé_8-7" data-name="Nouvelle nuance de dégradé 8" x1="157.11" y1="1322.95" x2="157.11" y2="1349.41" xlink:href="#Nouvelle_nuance_de_dégradé_8"/>
    <linearGradient id="Nouvelle_nuance_de_dégradé_8-8" data-name="Nouvelle nuance de dégradé 8" x1="121.62" y1="1299.58" x2="192.61" y2="1299.58" xlink:href="#Nouvelle_nuance_de_dégradé_8"/>
    <linearGradient id="Nouvelle_nuance_de_dégradé_1-9" data-name="Nouvelle nuance de dégradé 1" x1="199" y1="1280.52" x2="114.63" y2="1280.52" xlink:href="#Nouvelle_nuance_de_dégradé_1"/>
    <linearGradient id="Nouvelle_nuance_de_dégradé_27-2" data-name="Nouvelle nuance de dégradé 27" x1="198.16" y1="1166.15" x2="114.65" y2="1166.15" xlink:href="#Nouvelle_nuance_de_dégradé_27"/>
  </defs>
  <g id="Fusée">
    <g id="Fusée-2" data-name="Fusée">
      <g>
        <g>
          <rect class="cls-85" x="42.56" y="1240.99" width="124.33" height="984.22"/>
          <rect class="cls-21" x="44.31" y="1240.99" width="120.9" height="973.25"/>
          <rect class="cls-86" x="46.07" y="1240.99" width="117.47" height="962.28"/>
          <rect class="cls-97" x="47.82" y="1240.99" width="114.04" height="951.32"/>
          <rect class="cls-11" x="49.57" y="1240.99" width="110.6" height="940.35"/>
          <rect class="cls-31" x="51.33" y="1240.99" width="107.17" height="929.38"/>
          <rect class="cls-93" x="53.08" y="1240.99" width="103.74" height="918.42"/>
          <rect class="cls-96" x="54.84" y="1240.99" width="100.31" height="907.45"/>
          <rect class="cls-66" x="56.59" y="1240.99" width="96.88" height="896.48"/>
          <rect class="cls-1" x="58.35" y="1240.99" width="93.45" height="885.52"/>
          <rect class="cls-8" x="60.1" y="1240.99" width="90.01" height="874.55"/>
          <rect class="cls-98" x="61.85" y="1240.99" width="86.58" height="863.59"/>
          <rect class="cls-72" x="63.61" y="1240.99" width="83.15" height="852.62"/>
          <rect class="cls-62" x="65.36" y="1240.99" width="79.72" height="841.65"/>
          <rect class="cls-80" x="67.12" y="1240.99" width="76.29" height="830.69"/>
          <rect class="cls-68" x="68.87" y="1240.99" width="72.85" height="819.72"/>
          <rect class="cls-5" x="70.63" y="1240.99" width="69.42" height="808.75"/>
          <rect class="cls-70" x="72.38" y="1240.99" width="65.99" height="797.79"/>
          <rect class="cls-82" x="74.13" y="1240.99" width="62.56" height="786.82"/>
          <rect class="cls-17" x="75.89" y="1240.99" width="59.13" height="775.85"/>
          <rect class="cls-33" x="77.64" y="1240.99" width="55.7" height="764.89"/>
          <rect class="cls-87" x="79.4" y="1240.99" width="52.26" height="753.92"/>
          <rect class="cls-60" x="81.15" y="1240.99" width="48.83" height="742.95"/>
          <rect class="cls-83" x="82.91" y="1240.99" width="45.4" height="731.99"/>
          <rect class="cls-37" x="84.66" y="1240.99" width="41.97" height="721.02"/>
          <rect class="cls-39" x="86.41" y="1240.99" width="38.54" height="710.05"/>
          <rect class="cls-58" x="88.17" y="1240.99" width="35.11" height="699.09"/>
          <rect class="cls-36" x="89.92" y="1240.99" width="31.67" height="688.12"/>
          <rect class="cls-65" x="91.68" y="1240.99" width="28.24" height="677.15"/>
          <rect class="cls-89" x="93.43" y="1240.99" width="24.81" height="666.19"/>
          <rect class="cls-7" x="95.19" y="1240.99" width="21.38" height="655.22"/>
          <rect class="cls-19" x="96.94" y="1240.99" width="17.95" height="644.25"/>
        </g>
        <g>
          <path class="cls-35" d="M187.02,1316.53c0,91.84-36.77,332.24-82.12,332.24s-82.12-240.4-82.12-332.24c0-80.85,36.76-100.33,82.12-100.33s82.12,19.48,82.12,100.33Z"/>
          <path class="cls-3" d="M104.9,1640.52c-44.39,0-80.37-235.81-80.37-325.9,0-79.3,35.98-98.41,80.37-98.41s80.37,19.11,80.37,98.41c0,90.09-35.98,325.9-80.37,325.9Z"/>
          <path class="cls-4" d="M104.9,1632.26c-43.42,0-78.62-231.22-78.62-319.56,0-77.76,35.2-96.5,78.62-96.5s78.62,18.73,78.62,96.5c0,88.33-35.2,319.56-78.62,319.56Z"/>
          <path class="cls-63" d="M104.9,1624c-42.45,0-76.87-226.63-76.87-313.21,0-76.22,34.41-94.58,76.87-94.58s76.87,18.36,76.87,94.58c0,86.58-34.42,313.21-76.87,313.21Z"/>
          <path class="cls-69" d="M104.9,1615.74c-41.49,0-75.12-222.04-75.12-306.87,0-74.67,33.63-92.66,75.12-92.66s75.12,17.99,75.12,92.66c0,84.83-33.63,306.87-75.12,306.87Z"/>
          <path class="cls-10" d="M104.9,1607.48c-40.52,0-73.37-217.45-73.37-300.53,0-73.13,32.85-90.75,73.37-90.75s73.37,17.62,73.37,90.75c0,83.07-32.85,300.53-73.37,300.53Z"/>
          <path class="cls-81" d="M104.9,1599.22c-39.55,0-71.62-212.86-71.62-294.18,0-71.59,32.06-88.83,71.62-88.83s71.62,17.25,71.62,88.83c0,81.32-32.07,294.18-71.62,294.18Z"/>
          <path class="cls-34" d="M104.9,1590.97c-38.59,0-69.87-208.27-69.87-287.84,0-70.04,31.28-86.92,69.87-86.92s69.87,16.88,69.87,86.92c0,79.57-31.28,287.84-69.87,287.84Z"/>
          <path class="cls-64" d="M104.9,1582.71c-37.62,0-68.12-203.68-68.12-281.5,0-68.5,30.5-85,68.12-85s68.12,16.5,68.12,85c0,77.81-30.5,281.5-68.12,281.5Z"/>
          <path class="cls-22" d="M104.9,1574.45c-36.66,0-66.37-199.09-66.37-275.15,0-66.95,29.71-83.09,66.37-83.09s66.37,16.13,66.37,83.09c0,76.06-29.71,275.15-66.37,275.15Z"/>
          <path class="cls-40" d="M104.9,1566.19c-35.69,0-64.62-194.5-64.62-268.81,0-65.41,28.93-81.17,64.62-81.17s64.62,15.76,64.62,81.17c0,74.31-28.93,268.81-64.62,268.81Z"/>
          <path class="cls-6" d="M104.9,1557.93c-34.72,0-62.87-189.91-62.87-262.47,0-63.87,28.15-79.26,62.87-79.26s62.87,15.39,62.87,79.26c0,72.55-28.15,262.47-62.87,262.47Z"/>
          <path class="cls-74" d="M104.9,1549.67c-33.76,0-61.12-185.32-61.12-256.12,0-62.32,27.36-77.34,61.12-77.34s61.12,15.02,61.12,77.34c0,70.8-27.36,256.12-61.12,256.12Z"/>
          <path class="cls-9" d="M104.9,1541.41c-32.79,0-59.37-180.73-59.37-249.78,0-60.78,26.58-75.42,59.37-75.42s59.37,14.64,59.37,75.42c0,69.05-26.58,249.78-59.37,249.78Z"/>
          <path class="cls-30" d="M104.9,1533.15c-31.82,0-57.62-176.14-57.62-243.43,0-59.24,25.8-73.51,57.62-73.51s57.62,14.27,57.62,73.51c0,67.29-25.8,243.43-57.62,243.43Z"/>
          <path class="cls-71" d="M104.9,1524.89c-30.86,0-55.87-171.55-55.87-237.09,0-57.69,25.01-71.59,55.87-71.59s55.87,13.9,55.87,71.59c0,65.54-25.01,237.09-55.87,237.09Z"/>
          <path class="cls-61" d="M104.9,1516.63c-29.89,0-54.12-166.96-54.12-230.75,0-56.15,24.23-69.68,54.12-69.68s54.12,13.53,54.12,69.68c0,63.78-24.23,230.75-54.12,230.75Z"/>
          <path class="cls-67" d="M104.9,1508.37c-28.92,0-52.37-162.37-52.37-224.4,0-54.61,23.45-67.76,52.37-67.76s52.37,13.16,52.37,67.76c0,62.03-23.45,224.4-52.37,224.4Z"/>
          <path class="cls-20" d="M104.9,1500.12c-27.96,0-50.62-157.78-50.62-218.06,0-53.06,22.66-65.85,50.62-65.85s50.62,12.78,50.62,65.85c0,60.28-22.66,218.06-50.62,218.06Z"/>
          <path class="cls-90" d="M104.9,1491.86c-26.99,0-48.87-153.19-48.87-211.72,0-51.52,21.88-63.93,48.87-63.93s48.87,12.41,48.87,63.93c0,58.52-21.88,211.72-48.87,211.72Z"/>
          <path class="cls-13" d="M104.9,1483.6c-26.03,0-47.12-148.6-47.12-205.37,0-49.98,21.1-62.02,47.12-62.02s47.12,12.04,47.12,62.02c0,56.77-21.1,205.37-47.12,205.37Z"/>
          <path class="cls-18" d="M150.28,1276.31c0,55.02-20.31,199.03-45.37,199.03s-45.37-144.01-45.37-199.03c0-48.43,20.31-60.1,45.37-60.1s45.37,11.67,45.37,60.1Z"/>
        </g>
        <g>
          <g>
            <path class="cls-18" d="M150.28,1276.31c0,55.02-20.31,199.03-45.37,199.03s-45.37-144.01-45.37-199.03c0-48.43,20.31-60.1,45.37-60.1s45.37,11.67,45.37,60.1Z"/>
            <path class="cls-14" d="M104.9,1473.58c-24.36,0-44.1-143.29-44.1-197.62,0-47.83,19.75-59.35,44.1-59.35s44.1,11.52,44.1,59.35c0,54.33-19.75,197.62-44.1,197.62Z"/>
            <path class="cls-84" d="M104.9,1471.83c-23.66,0-42.84-142.57-42.84-196.22,0-47.23,19.18-58.6,42.84-58.6s42.84,11.38,42.84,58.6c0,53.65-19.18,196.22-42.84,196.22Z"/>
            <path class="cls-91" d="M104.9,1470.07c-22.96,0-41.57-141.85-41.57-194.81,0-46.62,18.61-57.86,41.57-57.86s41.57,11.23,41.57,57.86c0,52.96-18.61,194.81-41.57,194.81Z"/>
            <path class="cls-16" d="M104.9,1468.31c-22.26,0-40.3-141.13-40.3-193.41,0-46.02,18.04-57.11,40.3-57.11s40.3,11.09,40.3,57.11c0,52.28-18.04,193.41-40.3,193.41Z"/>
            <path class="cls-12" d="M104.9,1466.56c-21.56,0-39.03-140.41-39.03-192,0-45.42,17.47-56.36,39.03-56.36s39.03,10.94,39.03,56.36c0,51.59-17.47,192-39.03,192Z"/>
            <path class="cls-95" d="M104.9,1464.8c-20.85,0-37.76-139.69-37.76-190.59,0-44.81,16.91-55.61,37.76-55.61s37.76,10.8,37.76,55.61c0,50.91-16.91,190.59-37.76,190.59Z"/>
            <path class="cls-24" d="M104.9,1463.05c-20.15,0-36.49-138.97-36.49-189.19,0-44.21,16.34-54.86,36.49-54.86s36.49,10.65,36.49,54.86c0,50.22-16.34,189.19-36.49,189.19Z"/>
            <path class="cls-38" d="M104.9,1461.29c-19.45,0-35.22-138.25-35.22-187.78,0-43.61,15.77-54.11,35.22-54.11s35.22,10.51,35.22,54.11c0,49.54-15.77,187.78-35.22,187.78Z"/>
            <path class="cls-29" d="M104.9,1459.53c-18.75,0-33.95-137.52-33.95-186.38,0-43,15.2-53.37,33.95-53.37s33.95,10.36,33.95,53.37c0,48.85-15.2,186.38-33.95,186.38Z"/>
            <path class="cls-32" d="M104.9,1457.78c-18.05,0-32.68-136.8-32.68-184.97,0-42.4,14.63-52.62,32.68-52.62s32.68,10.22,32.68,52.62c0,48.17-14.63,184.97-32.68,184.97Z"/>
            <path class="cls-15" d="M104.9,1456.02c-17.35,0-31.42-136.08-31.42-183.57,0-41.8,14.07-51.87,31.42-51.87s31.42,10.07,31.42,51.87c0,47.48-14.07,183.57-31.42,183.57Z"/>
            <path class="cls-101" d="M104.9,1454.27c-16.65,0-30.15-135.36-30.15-182.16,0-41.2,13.5-51.12,30.15-51.12s30.15,9.93,30.15,51.12c0,46.8-13.5,182.16-30.15,182.16Z"/>
            <path class="cls-28" d="M104.9,1452.51c-15.95,0-28.88-134.64-28.88-180.75,0-40.59,12.93-50.37,28.88-50.37s28.88,9.78,28.88,50.37c0,46.11-12.93,180.75-28.88,180.75Z"/>
            <path class="cls-73" d="M104.9,1450.75c-15.25,0-27.61-133.92-27.61-179.35,0-39.99,12.36-49.62,27.61-49.62s27.61,9.64,27.61,49.62c0,45.43-12.36,179.35-27.61,179.35Z"/>
            <path class="cls-92" d="M104.9,1449c-14.55,0-26.34-133.2-26.34-177.94,0-39.39,11.79-48.88,26.34-48.88s26.34,9.49,26.34,48.88c0,44.74-11.79,177.94-26.34,177.94Z"/>
            <path class="cls-23" d="M104.9,1447.24c-13.85,0-25.07-132.48-25.07-176.54,0-38.78,11.22-48.13,25.07-48.13s25.07,9.34,25.07,48.13c0,44.06-11.22,176.54-25.07,176.54Z"/>
            <path class="cls-59" d="M104.9,1445.48c-13.15,0-23.8-131.76-23.8-175.13,0-38.18,10.66-47.38,23.8-47.38s23.8,9.2,23.8,47.38c0,43.37-10.66,175.13-23.8,175.13Z"/>
            <path class="cls-88" d="M104.9,1443.73c-12.44,0-22.53-131.04-22.53-173.72,0-37.58,10.09-46.63,22.53-46.63s22.53,9.05,22.53,46.63c0,42.69-10.09,173.72-22.53,173.72Z"/>
            <path class="cls-57" d="M104.9,1441.97c-11.74,0-21.26-130.32-21.26-172.32,0-36.97,9.52-45.88,21.26-45.88s21.26,8.91,21.26,45.88c0,42-9.52,172.32-21.26,172.32Z"/>
            <path class="cls-102" d="M104.9,1440.22c-11.04,0-20-129.6-20-170.91,0-36.37,8.95-45.13,20-45.13s19.99,8.76,19.99,45.13c0,41.32-8.95,170.91-19.99,170.91Z"/>
            <path class="cls-2" d="M123.63,1268.95c0,40.63-8.38,169.51-18.73,169.51s-18.73-128.87-18.73-169.51c0-35.77,8.38-44.39,18.73-44.39s18.73,8.62,18.73,44.39Z"/>
          </g>
          <g>
            <g>
              <path class="cls-106" d="M147.67,1247.85l-19.59-49.25h-46.36l-19.64,49.33c-.46.94-.84,1.9-1.15,2.88l-.03.08h.01c-.56,1.82-.87,3.69-.87,5.61,0,15.86,20.08,28.72,44.85,28.72s44.85-12.86,44.85-28.72c0-3.02-.74-5.92-2.08-8.66Z"/>
              <path class="cls-108" d="M157.11,561.61c0,17.93-23.42,32.52-52.21,32.52-28.79,0-52.21-14.59-52.21-32.52v664.56c0,17.93,23.42,32.52,52.21,32.52,28.79,0,52.21-14.59,52.21-32.52v-664.56Z"/>
              <g>
                <path class="cls-105" d="M205.02,1168.03l-9.88-24.83h-23.37l-9.9,24.87c-.23.47-.42.96-.58,1.45l-.02.04h0c-.28.92-.44,1.86-.44,2.83,0,8,10.12,14.48,22.61,14.48s22.61-6.48,22.61-14.48c0-1.52-.37-2.99-1.05-4.36Z"/>
                <path class="cls-100" d="M157.11,1142.21c0,9.05,11.82,16.41,26.34,16.41,14.53,0,26.34-7.36,26.34-16.41v-355.76c0,9.05-11.82,16.41-26.34,16.41-14.53,0-26.34-7.36-26.34-16.41v355.76Z"/>
                <path class="cls-44" d="M183.46,1126.19c-14.53,0-26.34-7.36-26.34-16.41v32.43c0,9.05,11.82,16.41,26.34,16.41s26.34-7.36,26.34-16.41v-32.43c0,9.05-11.82,16.41-26.34,16.41Z"/>
                <path class="cls-104" d="M183.46,1093.76c-14.53,0-26.34-7.36-26.34-16.41v32.43c0,9.05,11.82,16.41,26.34,16.41s26.34-7.36,26.34-16.41v-32.43c0,9.05-11.82,16.41-26.34,16.41Z"/>
                <path class="cls-54" d="M209.17,782.92h.04l-13.56-33.23h-24.37l-13.56,33.23h0c-.4,1.14-.63,2.32-.63,3.53,0,9.05,11.82,16.41,26.34,16.41s26.34-7.36,26.34-16.41c0-1.21-.23-2.39-.63-3.53Z"/>
                <path class="cls-75" d="M183.46,742.08c-7.01,0-12.72,4.95-12.72,11.04,0,4.37,5.7,7.92,12.72,7.92s12.72-3.55,12.72-7.92c0-6.09-5.7-11.04-12.72-11.04Z"/>
              </g>
              <path class="cls-94" d="M104.9,300.17c21.47,0,38.93-10.88,38.93-24.24,0-13.37-17.46-24.24-38.93-24.24-21.47,0-38.93,10.88-38.93,24.24,0,13.37,17.46,24.24,38.93,24.24Z"/>
              <path class="cls-94" d="M143.83,275.92c0,13.37-17.46,24.24-38.93,24.24-21.47,0-38.93-10.88-38.93-24.24v15.74c0,13.37,17.46,24.24,38.93,24.24,21.47,0,38.93-10.88,38.93-24.24v-15.74Z"/>
              <path class="cls-52" d="M156.94,559.53h.04s-10.55-96.47-10.55-96.47H63.37l-10.23,94.49c-.27,1.34-.45,2.69-.45,4.07,0,17.93,23.42,32.52,52.21,32.52s52.21-14.59,52.21-32.52c0-.7-.1-1.39-.17-2.09Z"/>
              <path class="cls-103" d="M52.69,601.92c0,17.93,23.42,32.52,52.21,32.52s52.21-14.59,52.21-32.52v-40.31c0,17.93-23.42,32.52-52.21,32.52s-52.21-14.59-52.21-32.52v40.31Z"/>
              <path class="cls-27" d="M52.69,1226.17c0,17.93,23.42,32.52,52.21,32.52s52.21-14.59,52.21-32.52v-40.31c0,17.93-23.42,32.52-52.21,32.52s-52.21-14.59-52.21-32.52v40.31Z"/>
              <path class="cls-50" d="M52.69,1192.05c0,17.93,23.42,32.52,52.21,32.52s52.21-14.59,52.21-32.52v-40.31c0,17.93-23.42,32.52-52.21,32.52s-52.21-14.59-52.21-32.52v40.31Z"/>
              <path class="cls-94" d="M104.9,260.09c22.9,0,41.53-11.6,41.53-25.86s-18.63-25.86-41.53-25.86c-22.9,0-41.53,11.6-41.53,25.86,0,14.26,18.63,25.86,41.53,25.86Z"/>
              <path class="cls-26" d="M63.37,234.23c0,14.26,18.63,25.86,41.53,25.86,22.9,0,41.53-11.6,41.53-25.86v228.82c0,14.26-18.63,25.86-41.53,25.86-22.9,0-41.53-11.6-41.53-25.86v-228.82Z"/>
              <path class="cls-107" d="M104.9,367.65c-22.9,0-41.53-11.6-41.53-25.86v121.27c0,14.26,18.63,25.86,41.53,25.86s41.53-11.6,41.53-25.86v-121.27c0,14.26-18.63,25.86-41.53,25.86Z"/>
              <path class="cls-48" d="M104.9,442.58c-22.9,0-41.53-11.6-41.53-25.87v46.34c0,14.26,18.63,25.86,41.53,25.86s41.53-11.6,41.53-25.86v-46.34c0,14.26-18.63,25.87-41.53,25.87Z"/>
              <path class="cls-94" d="M104.9,267.48c28.81,0,52.25-14.6,52.25-32.54,0-17.94-23.44-32.54-52.25-32.54-28.81,0-52.25,14.6-52.25,32.54,0,17.94,23.44,32.54,52.25,32.54Z"/>
              <path class="cls-94" d="M104.9,237.95c28.81,0,52.25-14.6,52.25-32.54,0-17.94-23.44-32.54-52.25-32.54-28.81,0-52.25,14.6-52.25,32.54,0,17.94,23.44,32.54,52.25,32.54Z"/>
              <path class="cls-49" d="M52.65,205.41c0,17.94,23.44,32.54,52.25,32.54,28.81,0,52.25-14.6,52.25-32.54v29.53c0,17.94-23.44,32.54-52.25,32.54-28.81,0-52.25-14.6-52.25-32.54v-29.53Z"/>
              <path class="cls-25" d="M52.65,205.41c0,17.94,23.44,32.54,52.25,32.54,28.81,0,52.25-14.6,52.25-32.54v-103.34c0,17.94-23.44,32.54-52.25,32.54-28.81,0-52.25-14.6-52.25-32.54v103.34Z"/>
              <path class="cls-77" d="M156.07,95.47l-25.94-73.58h-50.45l-26.5,75.02h.19c-.43,1.68-.72,3.4-.72,5.16,0,17.94,23.44,32.54,52.25,32.54s52.25-14.6,52.25-32.54c0-2.26-.38-4.47-1.09-6.6Z"/>
              <path class="cls-94" d="M104.9,0c-13.91,0-25.22,9.82-25.22,21.89,0,8.66,11.32,15.71,25.22,15.71s25.22-7.05,25.22-15.71c0-12.07-11.32-21.89-25.22-21.89Z"/>
            </g>
            <g>
              <path class="cls-46" d="M47.91,1168.03l-9.88-24.83H14.66l-9.9,24.87c-.23.47-.42.96-.58,1.45l-.02.04h0c-.28.92-.44,1.86-.44,2.83,0,8,10.12,14.48,22.61,14.48s22.61-6.48,22.61-14.48c0-1.52-.37-2.99-1.05-4.36Z"/>
              <path class="cls-76" d="M0,1142.21c0,9.05,11.82,16.41,26.34,16.41,14.53,0,26.34-7.36,26.34-16.41v-355.76c0,9.05-11.82,16.41-26.34,16.41-14.53,0-26.34-7.36-26.34-16.41v355.76Z"/>
              <path class="cls-47" d="M26.34,1126.19C11.82,1126.19,0,1118.83,0,1109.78v32.43c0,9.05,11.82,16.41,26.34,16.41s26.34-7.36,26.34-16.41v-32.43c0,9.05-11.82,16.41-26.34,16.41Z"/>
              <path class="cls-55" d="M26.34,1093.76C11.82,1093.76,0,1086.4,0,1077.35v32.43c0,9.05,11.82,16.41,26.34,16.41s26.34-7.36,26.34-16.41v-32.43c0,9.05-11.82,16.41-26.34,16.41Z"/>
              <path class="cls-56" d="M52.06,782.92h.04l-13.56-33.23H14.18l-13.56,33.23h0C.23,784.06,0,785.24,0,786.45c0,9.05,11.82,16.41,26.34,16.41s26.34-7.36,26.34-16.41c0-1.21-.23-2.39-.63-3.53Z"/>
              <path class="cls-78" d="M26.34,742.08c-7.01,0-12.72,4.95-12.72,11.04,0,4.37,5.7,7.92,12.72,7.92s12.72-3.55,12.72-7.92c0-6.09-5.7-11.04-12.72-11.04Z"/>
            </g>
          </g>
        </g>
        <g>
          <path class="cls-42" d="M83.15,1322.29l-14.22-35.75h-33.66l-14.26,35.81c-.33.68-.61,1.38-.83,2.09l-.02.06h0c-.41,1.32-.63,2.68-.63,4.08,0,11.52,14.58,20.85,32.56,20.85s32.56-9.34,32.56-20.85c0-2.19-.53-4.3-1.51-6.29Z"/>
          <path class="cls-45" d="M52.1,1298.08c-19.57,0-35.5-9.92-35.5-22.11v25.12c0,12.19,15.92,22.11,35.5,22.11s35.5-9.92,35.5-22.11v-25.12c0,12.19-15.92,22.11-35.5,22.11Z"/>
          <g>
            <path class="cls-53" d="M52.1,1278.72c-23.37,0-42.38-11.84-42.38-26.4v29.99c0,14.55,19.01,26.4,42.38,26.4s42.38-11.84,42.38-26.4v-29.99c0,14.55-19.01,26.4-42.38,26.4Z"/>
            <path class="cls-99" d="M72.56,1071.33c0-9.79-9.18-17.76-20.46-17.76s-20.46,7.97-20.46,17.76l-21.92,181c0,14.55,19.01,26.4,42.38,26.4s42.38-11.84,42.38-26.4l-21.92-181Z"/>
          </g>
        </g>
        <g>
          <path class="cls-43" d="M188.17,1322.29l-14.22-35.75h-33.66l-14.26,35.81c-.33.68-.61,1.38-.83,2.09l-.02.06h0c-.41,1.32-.63,2.68-.63,4.08,0,11.52,14.58,20.85,32.56,20.85s32.56-9.34,32.56-20.85c0-2.19-.53-4.3-1.51-6.29Z"/>
          <path class="cls-41" d="M157.11,1298.08c-19.57,0-35.5-9.92-35.5-22.11v25.12c0,12.19,15.92,22.11,35.5,22.11s35.5-9.92,35.5-22.11v-25.12c0,12.19-15.92,22.11-35.5,22.11Z"/>
          <g>
            <path class="cls-51" d="M157.11,1278.72c-23.37,0-42.38-11.84-42.38-26.4v29.99c0,14.55,19.01,26.4,42.38,26.4s42.38-11.84,42.38-26.4v-29.99c0,14.55-19.01,26.4-42.38,26.4Z"/>
            <path class="cls-79" d="M177.57,1071.33c0-9.79-9.18-17.76-20.46-17.76s-20.46,7.97-20.46,17.76l-21.92,181c0,14.55,19.01,26.4,42.38,26.4s42.38-11.84,42.38-26.4l-21.92-181Z"/>
          </g>
        </g>
      </g>
    </g>
  </g>
</svg>